<?xml version="1.0" encoding="UTF-8"?>
<svg width="100px" height="100px" viewBox="0 0 100 100" version="1.1" xmlns="http://www.w3.org/2000/svg" xmlns:xlink="http://www.w3.org/1999/xlink">
    <!-- Generator: Sketch 44.1 (41455) - http://www.bohemiancoding.com/sketch -->
    <title>icon</title>
    <desc>Created with Sketch.</desc>
    <defs>
        <path d="M65.5157215,56.7343814 L51.5137563,70.2308403 C50.7403144,71.0382057 49.6868332,71.4418885 48.5266704,71.4418885 C47.3665076,71.4418885 46.3263616,71.0382057 45.5395845,70.2308403 L31.4842785,56.7343814 C29.8173779,55.1331066 29.8173779,52.522625 31.4842785,50.9213502 C33.1511791,49.3200754 35.8448905,49.3200754 37.5117911,50.9213502 L44.2327344,57.4071859 L44.2327344,33.2074692 C44.2327344,30.9333899 46.1396687,29.0899055 48.5,29.0899055 C50.8603313,29.0899055 52.7672656,30.9333899 52.7672656,33.2074692 L52.7672656,57.4071859 L59.4882089,50.9213502 C61.1551095,49.3200754 63.8488209,49.3200754 65.5157215,50.9213502 C67.1826221,52.522625 67.1826221,55.1196505 65.5157215,56.7343814 Z" id="path-1"></path>
    </defs>
    <g id="Page-1" stroke="none" stroke-width="1" fill="none" fill-rule="evenodd">
        <g id="icon">
            <circle id="Oval" stroke="#0D78F2" stroke-width="5" fill="#FFFFFF" cx="50" cy="50" r="45"></circle>
            <g id="Group" opacity="0.400000006" transform="translate(6.000000, 5.000000)" stroke="#0D78F2" stroke-width="4">
                <path d="M45.5,0.592105263 C55.877193,15.3960526 61.0657895,30.1999999 61.0657895,45.0039472 C61.0657895,59.8078945 55.877193,74.6118418 45.5,89.4157891" id="Line"></path>
                <path d="M25.1447368,0.592105263 C35.5219298,15.3960526 40.7105263,30.1999999 40.7105263,45.0039472 C40.7105263,59.8078945 35.5219298,74.6118418 25.1447368,89.4157891" id="Line" transform="translate(32.927632, 45.003947) scale(-1, 1) translate(-32.927632, -45.003947) "></path>
                <path d="M0.598684211,32.5657895 L86.8092105,32.5657895" id="Line" stroke-linecap="square"></path>
                <path d="M0.598684211,57.4342105 L86.8092105,57.4342105" id="Line-Copy" stroke-linecap="square"></path>
            </g>
            <g id="Shape" fill-rule="nonzero" transform="translate(48.500000, 50.265897) rotate(-90.000000) translate(-48.500000, -50.265897) ">
                <use fill="#0D78F2" fill-rule="evenodd" xlink:href="#path-1"></use>
                <path stroke="#FFFFFF" stroke-width="3" d="M42.7327344,53.8751107 L42.7327344,33.2074692 C42.7327344,30.0917501 45.3240386,27.5899055 48.5,27.5899055 C51.6759614,27.5899055 54.2672656,30.0917501 54.2672656,33.2074692 L54.2672656,53.8751127 L58.4490565,49.8396098 C60.6964922,47.6806556 64.3074382,47.6806556 66.5548739,49.8396098 C68.8354857,52.030434 68.8354857,55.6069056 66.559388,57.8117673 L66.5567076,57.8143573 L52.5969285,71.2685002 C51.5448357,72.3667383 50.1056282,72.9418885 48.5266704,72.9418885 C46.9545132,72.9418885 45.5307448,72.3710242 44.500652,71.3127919 L30.4451261,57.8161218 C28.163762,55.6245749 28.163762,52.0311567 30.4451261,49.8396098 C32.6925618,47.6806556 36.3035078,47.6806556 38.5534043,49.8419792 L42.7327344,53.8751107 Z"></path>
            </g>
        </g>
    </g>
</svg>